<svg width="187" height="40" viewBox="0 0 187 40" fill="none" xmlns="http://www.w3.org/2000/svg">
<path d="M33.8293 0.0480347H5.45633C2.44288 0.0480347 0 2.52937 0 5.59025V34.4098C0 37.4707 2.44288 39.952 5.45633 39.952H33.8293C36.8427 39.952 39.2856 37.4707 39.2856 34.4098V5.59025C39.2856 2.52937 36.8427 0.0480347 33.8293 0.0480347Z" fill="#00ADE2"/>
<path d="M10.4219 9.90762H13.7826V16.3654H13.847C14.6545 15.0925 16.757 14.0746 18.9545 14.0746C23.5065 14.1426 27.139 17.83 27.0713 22.31C27.0044 26.695 23.409 30.2331 18.9545 30.3C16.7563 30.3 14.6556 29.2817 13.847 28.0092H13.7826V29.8866H10.4219V9.90762ZM18.6635 17.1938C17.6956 17.185 16.7466 17.4662 15.9351 18.0022C15.1236 18.5382 14.4857 19.3053 14.101 20.2075C13.7163 21.1097 13.602 22.1071 13.7722 23.075C13.9425 24.0428 14.3898 24.9383 15.0582 25.6494C15.7267 26.3604 16.5867 26.8556 17.5307 27.0731C18.4747 27.2905 19.4608 27.2205 20.3659 26.8718C21.2709 26.5232 22.0547 25.9113 22.6193 25.1127C23.1839 24.3141 23.5043 23.3642 23.5404 22.3817C23.5433 22.3166 23.544 22.2516 23.544 22.1873C23.5658 21.5522 23.4639 20.919 23.2441 20.324C23.0244 19.729 22.6911 19.1839 22.2634 18.7201C21.8357 18.2563 21.3221 17.8828 20.7519 17.6211C20.1818 17.3595 19.5664 17.2147 18.941 17.1953C18.8484 17.1906 18.7558 17.1887 18.6631 17.1897L18.6635 17.1938Z" fill="white"/>
<path d="M30.084 26.4153C30.6028 26.4187 31.0991 26.6309 31.4642 27.0053C31.8292 27.3797 32.0333 27.8859 32.0316 28.4128C32.0299 28.9398 31.8226 29.4446 31.4552 29.8166C31.0877 30.1886 30.5901 30.3975 30.0713 30.3975C29.5525 30.3975 29.0549 30.1886 28.6874 29.8166C28.32 29.4446 28.1127 28.9398 28.111 28.4128C28.1093 27.8859 28.3134 27.3797 28.6784 27.0053C29.0435 26.6309 29.5398 26.4187 30.0586 26.4153H30.084Z" fill="white"/>
<path d="M53 9.70364H56.3116V16.2695H56.3754C57.1714 14.9763 59.2411 13.9413 61.4073 13.9413C63.5432 13.9686 65.5825 14.8495 67.0834 16.3933C68.5843 17.937 69.426 20.0194 69.426 22.189C69.426 24.3587 68.5843 26.441 67.0834 27.9848C65.5825 29.5285 63.5432 30.4095 61.4073 30.4367C59.2411 30.4367 57.1714 29.3985 56.3754 28.1079H56.3116V30.0169H53V9.70364ZM61.1199 17.111C60.1228 17.0717 59.1369 17.3361 58.289 17.8702C57.441 18.4043 56.7696 19.1838 56.3611 20.1085C55.9526 21.0331 55.8256 22.0608 55.9964 23.0593C56.1673 24.0578 56.6282 24.9817 57.3199 25.7121C58.0117 26.4425 58.9026 26.9462 59.8783 27.1584C60.854 27.3705 61.8699 27.2815 62.7954 26.9028C63.7209 26.524 64.5137 25.8728 65.0721 25.0328C65.6305 24.1929 65.9288 23.2025 65.9288 22.189C65.9598 21.5302 65.858 20.8718 65.6298 20.2543C65.4015 19.6367 65.0516 19.073 64.6014 18.5976C64.1512 18.1223 63.6102 17.7452 63.0116 17.4896C62.4129 17.234 61.7692 17.1052 61.1199 17.111Z" fill="#0E242C"/>
<path d="M75.8635 9.70364V23.7093C75.8635 25.5196 76.2468 26.1672 77.2324 26.7499L79.0147 27.788L77.548 30.4367C74.1419 28.7873 72.5487 27.5895 72.5487 24.3238V9.70364H75.8635Z" fill="#0E242C"/>
<path d="M80.7656 14.3612H84.0778V23.1266C84.057 23.6368 84.138 24.1459 84.3158 24.6234C84.4937 25.101 84.7648 25.537 85.1128 25.9055C85.4607 26.2739 85.8785 26.567 86.3408 26.7673C86.8032 26.9675 87.3007 27.0708 87.8033 27.0708C88.306 27.0708 88.8035 26.9675 89.2658 26.7673C89.7282 26.567 90.1459 26.2739 90.4939 25.9055C90.8419 25.537 91.113 25.101 91.2909 24.6234C91.4687 24.1459 91.5497 23.6368 91.5289 23.1266V14.3612H94.8404V23.4173C94.8404 27.8172 91.4643 30.4367 87.8027 30.4367C84.1411 30.4367 80.7656 27.8166 80.7656 23.4173V14.3612Z" fill="#0E242C"/>
<path d="M113.819 26.6201C112.984 27.762 111.906 28.6981 110.666 29.359C109.425 30.0198 108.054 30.3884 106.655 30.4374C101.273 30.4374 98.1527 26.3288 98.1527 22.189C98.1527 18.0493 101.273 13.9414 106.655 13.9414C109.871 13.9414 114.648 16.6257 114.648 22.7386V23.3531H101.846C102.038 25.7467 104.235 27.4617 106.559 27.4617C107.439 27.4507 108.304 27.2244 109.08 26.802C109.856 26.3796 110.52 25.7735 111.017 25.0349L113.819 26.6201ZM110.763 20.5721C110.06 18.1784 108.311 16.917 106.209 16.917C105.174 16.9032 104.167 17.2629 103.368 17.9322C102.57 18.6015 102.03 19.5369 101.847 20.5721H110.763Z" fill="#0E242C"/>
<path d="M121.27 16.2694H121.334C121.947 15.5151 122.722 14.9132 123.599 14.5097C124.477 14.1062 125.433 13.9118 126.396 13.9413C131.459 13.9413 134.39 18.1459 134.39 22.189C134.355 24.3713 133.485 26.454 131.962 27.9942C130.44 29.5345 128.386 30.4107 126.237 30.4366C123.944 30.4366 122.193 29.4341 121.334 28.1079H121.27V35.4173H117.958V14.365H121.27V16.2694ZM125.982 17.1129C124.989 17.0937 124.014 17.3752 123.179 17.9215C122.344 18.4678 121.689 19.2541 121.295 20.1803C120.902 21.1065 120.79 22.1306 120.972 23.122C121.154 24.1135 121.623 25.0274 122.318 25.7473C123.013 26.4673 123.904 26.9606 124.876 27.1645C125.849 27.3683 126.859 27.2735 127.778 26.892C128.697 26.5105 129.484 25.8597 130.038 25.0224C130.591 24.1852 130.887 23.1995 130.887 22.1909C130.898 20.8572 130.388 19.5734 129.469 18.6214C128.549 17.6693 127.295 17.1268 125.982 17.1129Z" fill="#0E242C"/>
<path d="M137.446 14.3612H140.566V16.0755H140.63C140.868 15.4542 141.282 14.9191 141.821 14.5387C142.36 14.1584 142.999 13.9502 143.655 13.9407C144.293 13.9263 144.921 14.0945 145.47 14.4261L144.292 17.7573C143.926 17.4938 143.497 17.3368 143.05 17.3031C142.745 17.2999 142.443 17.359 142.161 17.477C141.88 17.5949 141.624 17.7692 141.41 17.9896C141.196 18.2099 141.028 18.4717 140.916 18.7595C140.804 19.0472 140.75 19.3549 140.757 19.6643V30.015H137.446V14.3612Z" fill="#0E242C"/>
<path d="M149.196 9.2832C149.561 9.2832 149.918 9.39327 150.222 9.59949C150.526 9.80572 150.763 10.0988 150.903 10.4417C151.042 10.7847 151.079 11.162 151.008 11.526C150.936 11.8901 150.76 12.2244 150.502 12.4868C150.243 12.7492 149.914 12.9279 149.556 13.0002C149.197 13.0726 148.826 13.0353 148.488 12.8932C148.151 12.7511 147.862 12.5104 147.659 12.2018C147.457 11.8931 147.348 11.5302 147.348 11.1591C147.349 10.6615 147.543 10.1844 147.89 9.83259C148.236 9.48082 148.706 9.2832 149.196 9.2832ZM147.539 14.3612H150.851V30.0162H147.539V14.3612Z" fill="#0E242C"/>
<path d="M155.116 14.3612H158.427V16.3344H158.491C159.013 15.5626 159.719 14.9381 160.543 14.5195C161.367 14.1008 162.283 13.9016 163.204 13.9407C166.452 13.9407 169.19 16.6899 169.19 20.5714V30.0169H165.879V21.3156C165.879 18.4684 164.414 17.3044 162.216 17.3044C160.082 17.3044 158.427 18.6962 158.427 21.2514V30.0169H155.116V14.3612Z" fill="#0E242C"/>
<path d="M171.994 14.3612H173.873V10.2215L177.184 9.2832V14.3612H179.828V17.5309H177.186V23.7087C177.186 25.3912 177.569 26.1666 178.556 26.7499L180.339 27.7881L178.874 30.44C175.467 28.7906 173.875 27.5928 173.875 24.327V17.5309H171.996L171.994 14.3612Z" fill="#0E242C"/>
<path d="M184.986 26.491C185.37 26.4911 185.746 26.6069 186.065 26.8238C186.385 27.0407 186.633 27.3489 186.78 27.7095C186.927 28.0701 186.966 28.4668 186.891 28.8495C186.816 29.2322 186.631 29.5838 186.359 29.8597C186.087 30.1355 185.741 30.3234 185.364 30.3995C184.987 30.4756 184.597 30.4365 184.242 30.2871C183.887 30.1377 183.584 29.8848 183.37 29.5603C183.157 29.2359 183.043 28.8544 183.043 28.4642C183.041 28.2045 183.09 27.9472 183.188 27.707C183.285 27.4668 183.428 27.2486 183.609 27.065C183.789 26.8815 184.004 26.7362 184.241 26.6377C184.477 26.5391 184.731 26.4893 184.986 26.491Z" fill="#0E242C"/>
</svg>
