<?xml version="1.0" encoding="utf-8"?>
<!-- Generator: Adobe Illustrator 25.1.0, SVG Export Plug-In . SVG Version: 6.00 Build 0)  -->
<svg version="1.1" id="Layer_1" xmlns="http://www.w3.org/2000/svg" xmlns:xlink="http://www.w3.org/1999/xlink" x="0px" y="0px"
	 viewBox="0 0 144 45.21" style="enable-background:new 0 0 144 45.21;" xml:space="preserve">
<style type="text/css">
	.st0{fill:#FF6B00;}
	.st1{fill:#99BCAB;}
	.st2{fill:none;}
	.st3{fill:#00416B;}
</style>
<g>
	<path class="st0" d="M20.57,12.28h-0.4c-1.49,0-2.71,1.22-2.71,2.71v2.18h-4.49c-0.22,0-0.39,0.18-0.39,0.39v0.4
		c0,1.49,1.22,2.71,2.71,2.71h5.68v-8C20.96,12.45,20.79,12.28,20.57,12.28z"/>
	<path class="st1" d="M29.96,24.14h-5.53v8c0,0.22,0.18,0.39,0.39,0.39h0.4c1.49,0,2.71-1.22,2.71-2.71v-2.18h4.34
		c0.22,0,0.39-0.18,0.39-0.39v-0.4C32.67,25.35,31.46,24.14,29.96,24.14z"/>
	<path class="st0" d="M12.57,24.53v0.4c0,1.49,1.22,2.71,2.71,2.71h2.18v4.49c0,0.22,0.18,0.39,0.39,0.39h0.4
		c1.49,0,2.71-1.22,2.71-2.71v-5.68h-8C12.75,24.14,12.57,24.32,12.57,24.53z"/>
	<path class="st0" d="M29.96,17.16h-2.02v-4.49c0-0.22-0.18-0.39-0.39-0.39h-0.4c-1.49,0-2.71,1.22-2.71,2.71v5.68h7.85
		c0.22,0,0.39-0.18,0.39-0.39v-0.4C32.67,18.38,31.46,17.16,29.96,17.16z"/>
</g>
<rect y="0" class="st2" width="144" height="45.21"/>
<g>
	<path class="st3" d="M45.46,22.74c1.23-0.39,2.63-1.34,2.63-3.66c0-0.7-0.09-1.72-0.84-2.49c-0.79-0.81-2.12-1.2-4.08-1.2
		c-0.93,0-1.92,0.08-3.02,0.25l-0.08,0.01l-0.08,0.01v0.08v11.75v0.1h0.1h1.75h0.1v-0.1v-4.53c0.41,0.06,0.85,0.09,1.33,0.09h0.15
		l2.97,4.2c0.15,0.21,0.38,0.33,0.64,0.33h1.75h0.19l-0.11-0.15L45.46,22.74z M43.29,21.48c-0.43,0-0.89-0.04-1.37-0.13v-4.3
		c0.42-0.05,0.81-0.08,1.24-0.08c0.66,0,1.49,0.04,2.08,0.38c0.59,0.34,0.88,0.93,0.88,1.81C46.13,21.18,44.35,21.48,43.29,21.48z"
		/>
	<path class="st3" d="M53.24,18.2c-1.4,0-2.46,0.4-3.15,1.2c-0.7,0.8-1.04,1.99-1.04,3.61c0,1.69,0.32,2.89,0.97,3.66
		c0.66,0.78,1.68,1.15,3.12,1.15c1.39,0,2.45-0.41,3.13-1.21c0.69-0.81,1.03-1.99,1.03-3.62c0-1.64-0.33-2.82-0.99-3.61
		C55.65,18.59,54.64,18.2,53.24,18.2z M53.21,19.78c0.76,0,1.25,0.18,1.58,0.59c0.41,0.5,0.61,1.36,0.61,2.65
		c0,1.48-0.38,3.24-2.21,3.24c-0.79,0-1.33-0.24-1.68-0.75c-0.36-0.52-0.53-1.33-0.53-2.49c0-1.3,0.26-2.21,0.76-2.72
		C52.2,19.83,52.8,19.78,53.21,19.78z"/>
	<path class="st3" d="M70.39,18.71c-0.68-0.47-1.57-0.53-2.19-0.53c-1,0-2.02,0.25-3.01,0.73c-0.52-0.49-1.29-0.73-2.33-0.73
		c-1.23,0-2.57,0.32-4,0.94l-0.06,0.02l-0.06,0.03v0.06v8.24v0.1h0.1h1.66h0.1v-0.1v-7.24c0.52-0.26,1.25-0.41,1.93-0.41
		c1.12,0,1.73,0.28,1.73,1.75v5.91v0.1h0.1h1.64h0.1v-0.1v-6.17c0-0.45-0.03-0.79-0.1-1.09c0.58-0.25,1.28-0.4,1.89-0.4
		c1.12,0,1.73,0.28,1.73,1.75v5.91v0.1h0.1h1.64h0.1v-0.1v-6.17C71.46,20.08,71.1,19.21,70.39,18.71z"/>
	<path class="st3" d="M80.49,20.93c0-1.22-0.76-2.64-2.89-2.64c-2.82,0-4.71,1.93-4.71,4.81c0,4.07,2.68,4.67,4.27,4.67
		c0.85,0,1.83-0.18,2.83-0.52l0.08-0.03l-0.01-0.08l-0.24-1.4l-0.02-0.11l-0.11,0.04c-0.96,0.33-1.76,0.5-2.42,0.5
		c-1.42,0-2.21-0.69-2.42-2.11c0.39,0.09,0.83,0.13,1.32,0.13C78.23,24.19,80.47,23.17,80.49,20.93z M74.88,22.61
		c0.09-0.71,0.33-1.36,0.7-1.84c0.46-0.6,1.08-0.91,1.84-0.91c0.69,0,1.1,0.41,1.1,1.1c0,1.23-1.28,1.79-2.56,1.79
		C75.57,22.76,75.19,22.7,74.88,22.61z"/>
	<polygon class="st3" points="91.23,15.51 91.13,15.51 91.13,15.6 91.13,20.53 86.36,20.53 86.36,15.6 86.36,15.51 86.26,15.51 
		84.53,15.51 84.43,15.51 84.43,15.6 84.43,27.49 84.43,27.58 84.53,27.58 86.26,27.58 86.36,27.58 86.36,27.49 86.36,22.21 
		91.13,22.21 91.13,27.49 91.13,27.58 91.23,27.58 92.96,27.58 93.06,27.58 93.06,27.49 93.06,15.6 93.06,15.51 92.96,15.51 	"/>
	<path class="st3" d="M102.08,20.93c0-1.22-0.76-2.64-2.89-2.64c-2.82,0-4.71,1.93-4.71,4.81c0,4.07,2.68,4.67,4.27,4.67
		c0.85,0,1.83-0.18,2.83-0.52l0.08-0.03l-0.01-0.08l-0.24-1.4l-0.02-0.11l-0.11,0.04c-0.96,0.33-1.76,0.5-2.42,0.5
		c-1.42,0-2.21-0.69-2.42-2.11c0.39,0.09,0.83,0.13,1.32,0.13C99.83,24.19,102.07,23.17,102.08,20.93z M96.48,22.61
		c0.09-0.71,0.33-1.36,0.7-1.84c0.46-0.6,1.08-0.91,1.84-0.91c0.69,0,1.1,0.41,1.1,1.1c0,1.23-1.28,1.79-2.56,1.79
		C97.17,22.76,96.79,22.7,96.48,22.61z"/>
	<path class="st3" d="M111.31,27.4c-0.18-0.7-0.22-1.24-0.26-1.99l0-6.51v-0.07l-0.06-0.02l-0.06-0.02c-1-0.34-2.02-0.52-3.04-0.52
		c-1.26,0-2.28,0.31-3.03,0.92c-0.99,0.8-1.49,2.12-1.49,3.91c0,2.99,1.35,4.64,3.81,4.64c0.87,0,1.63-0.23,2.25-0.68l0.12,0.5
		l0.02,0.07h0.08h1.6h0.12l-0.03-0.12L111.31,27.4z M109.18,25.7c-0.68,0.46-1.28,0.52-1.77,0.52c-1.75,0-2.12-1.64-2.12-3.01
		c0-1.12,0.23-1.97,0.67-2.53c0.44-0.55,1.11-0.83,1.99-0.83c0.41,0,0.81,0.05,1.23,0.15V25.7z"/>
	<path class="st3" d="M116.41,26.12l-0.02-0.11l-0.11,0.03l-0.1,0.03c-0.28,0.09-0.55,0.13-0.82,0.13c-0.54,0-0.77-0.2-0.77-0.67
		V15.04v-0.1h-0.1h-1.69h-0.1v0.1v10.6c0,1.51,0.63,2.19,2.05,2.19c0.28,0,0.99-0.07,1.73-0.33l0.08-0.03l0.08-0.03l-0.01-0.08
		L116.41,26.12z"/>
	<path class="st3" d="M122.27,25.97l-0.02-0.11l-0.1,0.04l-0.1,0.04c-0.68,0.24-1.09,0.27-1.44,0.27c-0.77,0-0.77-0.32-0.77-0.89
		v-5.34h1.26c0.37,0,0.69-0.26,0.76-0.63l0.16-0.81l0.02-0.11h-0.12h-2.07v-2.32V16h-0.1h-1.68h-0.1v0.1v2.32h-1.09h-0.1v0.1v1.36
		v0.1h0.1h1.09v5.17c0,1.74,0.4,2.62,2.57,2.62c0.64,0,1.07-0.08,1.85-0.36l0.08-0.03l0.08-0.03l-0.02-0.08L122.27,25.97z"/>
	<path class="st3" d="M128.18,18.19c-0.74,0-1.55,0.15-2.36,0.44v-3.58v-0.1h-0.1h-1.66h-0.1v0.1v12.44v0.1h0.1h1.66h0.1v-0.1V20.3
		c0.57-0.29,1.32-0.45,2.07-0.45c1.13,0,1.63,0.56,1.63,1.8v5.84v0.1h0.1h1.64h0.1v-0.1v-6.12
		C131.35,19.32,130.23,18.19,128.18,18.19z"/>
</g>
</svg>
