<svg fill="none" height="26" viewBox="0 0 137 26" width="137" xmlns="http://www.w3.org/2000/svg"><path clip-rule="evenodd" d="m70.816 3.26953c.9002 0 1.7703.3273 2.3831.89946.5724.52853.8322 1.03766 1.4626 3.37966l4.4107 16.14915h-2.8219l-1.5737-5.7871h-7.7192l-1.5736 5.7871h-2.8219l4.4106-16.15158c.6254-2.33957.8877-2.8487 1.4601-3.37723.6129-.57216 1.4803-.89946 2.3832-.89946zm0 2.56262c-.1766 0-.3531.06546-.4565.16486-.1664.16244-.3203.62308-.7187 2.14562l-1.9746 7.20537h6.3045l-1.9745-7.20294c-.4035-1.52497-.5599-1.98561-.7238-2.14805-.1034-.0994-.2799-.16486-.4564-.16486zm50.025-2.44983v.06592h.003v2.5602h-6.698c-1.062 0-1.548 0-1.843.2182-.401.30063-.416.81703-.416 2.06319v3.63617l7.139-.0291v.066l.002-.0001v2.5627l-7.141.0291v4.2985c0 .3117.001.5779.009.8065.027.6422.116.9751.407 1.1932.292.2157.776.2157 1.841.2157h6.7v.066 2.5626h-6.698c-1.354 0-2.635 0-3.704-.8898-1.299-1.1128-1.299-2.4923-1.299-3.9518v-.0659-10.49977-.06592c0-1.45951 0-2.83901 1.293-3.9494l.003-.00242c1.067-.88734 2.345-.88977 3.697-.88977h.008zm-83.9059 8.61248h8.3321v-8.54607h2.7437v20.24887h-2.7437v-9.1401h-8.3321v9.1401h-2.7437v-20.24887h2.7437zm14.5898-7.6563c1.0668-.88735 2.3453-.88977 3.697-.88977h.0101 6.6979v2.5602h-6.6979c-1.0617 0-1.5484 0-1.8434.2182-.401.30063-.4161.81703-.4161 2.06319v3.70208l7.1417-.0291v2.5627l-7.1417.029v4.2986c0 1.2461.0176 1.7649.4186 2.0656.2925.2157.7767.2157 1.8409.2157h6.6979v2.5627h-6.6979c-1.3542 0-2.6353 0-3.7045-.8898-1.2988-1.1128-1.2988-2.4923-1.2988-3.9518v-10.56568c0-1.45951 0-2.83901 1.2937-3.9494zm32.8818-.88977c-.759 0-2.03 0-3.1018.89219-1.2937 1.11039-1.2937 2.48989-1.2937 3.9494v10.56568c0 1.4595 0 2.839 1.2987 3.9518 1.0693.8898 2.3403.8898 3.0993.8898 2.0427 0 5.1294 0 7.2906-2.1214 2.1309-2.0899 2.1309-4.9628 2.1309-8.0055 0-3.0426 0-5.91558-2.1309-8.00302-2.1637-2.11895-5.2504-2.11895-7.2931-2.11895zm0 17.68617c-.4842 0-.9431 0-1.2357-.2157-.4009-.3007-.4186-.8195-.4186-2.0656v-10.56328c0-1.24616.0151-1.76256.4161-2.06319.2951-.2182.754-.2182 1.2382-.2182 1.6669 0 3.9492.06292 5.2983 1.38423 1.3795 1.35284 1.3795 3.34094 1.3795 6.17754s0 4.8877-1.3795 6.2405c-1.3491 1.3237-3.6314 1.3237-5.2983 1.3237zm17.0093-9.2247c1.319.3806 2.814.8146 4.1 1.8959 1.007.8461 2.083 2.422 2.083 4.3058 0 2.776-2.095 5.7629-6.698 5.7629-2.4028 0-4.6548-.7807-6.3394-2.1966l-.1866-.1576 1.7527-1.9734.1916.1672c1.1727 1.0183 2.8421 1.6002 4.5817 1.6002 1.967 0 3.955-.9892 3.955-3.2003 0-.8849-.487-1.8498-1.241-2.4559-.755-.6292-1.9-.9709-3.228-1.3675l-.008-.0023-.211-.0631-.011-.0031c-1.1241-.3288-2.2883-.6693-3.5325-1.6818-.9482-.7662-1.9645-2.2087-1.9645-3.95429 0-3.12994 2.5672-5.31678 6.244-5.31678 2.136 0 4.244.66914 5.785 1.83287l.197.14789-1.642 2.04864-.202-.15516c-1.054-.82188-2.6-1.31162-4.138-1.31162-2.5849 0-3.5003 1.45224-3.5003 2.69597 0 .81461.406 1.60008 1.1172 2.15778.6985.5701 1.8681.9188 2.8091 1.1995l.01.003zm26.194-5.89934h-5.689v-2.56262h14.122v2.56262h-5.689v17.68624h-2.744z" fill="#14172e" fill-rule="evenodd"/><path d="m13.8698 0-11.12371 5.14949 4.94022 3.78696z" fill="#da1a32"/><path d="m13.871 6.0732v-6.0732l-6.1835 8.93645z" fill="#ae132a"/><path d="m13.8711 0 11.1237 5.14949-4.9402 3.78696z" fill="#a30c33"/><path d="m13.8711 6.0732v-6.0732l6.1835 8.93645z" fill="#6f1931"/><path d="m7.68631 8.9354-4.94022-3.78696 3.41201 10.21896z" fill="#f15d22"/><path d="m2.74625 5.14844-2.74625 11.57176 6.15825-1.3528z" fill="#f58025"/><path d="m20.0508 8.9354 4.9402-3.78696-3.412 10.21896z" fill="#840055"/><path d="m24.994 5.14844 2.7463 11.57176-6.1583-1.3528z" fill="#bb0e82"/><path d="m7.69655 25.997 2.74125-5.4695-10.4378-3.8087z" fill="#232e83"/><path d="m0 16.72 10.4378 3.8088-4.27955-5.1616z" fill="#6862e8"/><path d="m20.0381 25.997-2.7412-5.4695 10.4377-3.8087z" fill="#232e83"/><path d="m27.7346 16.72-10.4377 3.8088 4.2795-5.1616z" fill="#6862e8"/></svg>