<?xml version="1.0" encoding="UTF-8"?>
<svg width="1728px" height="540px" viewBox="0 0 1728 540" version="1.1" xmlns="http://www.w3.org/2000/svg" xmlns:xlink="http://www.w3.org/1999/xlink">
    <!-- Generator: Sketch 61.2 (89653) - https://sketch.com -->
    <title>Artboard</title>
    <desc>Created with Sketch.</desc>
    <g id="Artboard" stroke="none" stroke-width="1" fill="none" fill-rule="evenodd">
        <path d="M399.899676,324.648799 C405.466019,325.166101 419.317152,320.381055 419.317152,305.249966 C419.317152,290.118876 406.501618,285.851133 399.899676,285.851133 L399.899676,324.648799 Z" id="Oval" stroke="#617AD0" stroke-width="9.70873786" fill="#617AD0" stroke-linejoin="round" transform="translate(409.608414, 305.268608) rotate(90.000000) translate(-409.608414, -305.268608) "></path>
        <path d="M664.854369,348.533981 C673.656958,348.533981 682.038835,347.110032 690,344.262136 C697.961165,341.414239 705.436893,337.20712 712.427184,331.640777 C713.462783,330.605178 714.239482,329.472492 714.757282,328.242718 C715.275081,327.012945 715.533981,325.750809 715.533981,324.456311 C715.533981,321.608414 714.757282,319.375405 713.203883,317.757282 C711.650485,316.139159 709.7411,315.23301 707.475728,315.038835 C705.210356,314.84466 702.912621,315.588997 700.582524,317.271845 C695.145631,321.28479 689.482201,324.423948 683.592233,326.68932 C677.702265,328.954693 671.456311,330.087379 664.854369,330.087379 C657.216828,330.087379 650.032362,328.566343 643.300971,325.524272 C636.569579,322.482201 630.647249,318.242718 625.533981,312.805825 C620.420712,307.368932 616.440129,301.058252 613.592233,293.873786 C610.744337,286.68932 609.320388,278.954693 609.320388,270.669903 C609.320388,262.514563 610.744337,254.84466 613.592233,247.660194 C616.440129,240.475728 620.420712,234.165049 625.533981,228.728155 C630.647249,223.291262 636.569579,219.019417 643.300971,215.912621 C650.032362,212.805825 657.216828,211.252427 664.854369,211.252427 C673.268608,211.252427 680.032362,212.352751 685.145631,214.553398 C690.2589,216.754045 695.210356,219.925566 700,224.067961 C702.330097,225.880259 704.724919,226.68932 707.184466,226.495146 C709.644013,226.300971 711.747573,225.394822 713.495146,223.776699 C715.242718,222.158576 716.116505,220.119741 716.116505,217.660194 C716.116505,216.495146 716.019417,215.491909 715.825243,214.650485 C715.631068,213.809061 715.242718,212.967638 714.660194,212.126214 C714.07767,211.28479 713.268608,210.475728 712.23301,209.699029 C704.983819,203.744337 697.76699,199.472492 690.582524,196.883495 C683.398058,194.294498 674.822006,193 664.854369,193 C654.239482,193 644.401294,195.006472 635.339806,199.019417 C626.278317,203.032362 618.349515,208.566343 611.553398,215.621359 C604.757282,222.676375 599.449838,230.89644 595.631068,240.281553 C591.812298,249.666667 589.902913,259.796117 589.902913,270.669903 C589.902913,281.673139 591.812298,291.899676 595.631068,301.349515 C599.449838,310.799353 604.757282,319.05178 611.553398,326.106796 C618.349515,333.161812 626.31068,338.66343 635.436893,342.61165 C644.563107,346.559871 654.368932,348.533981 664.854369,348.533981 Z M771.456311,346.592233 C775.339806,346.592233 778.511327,345.686084 780.970874,343.873786 C783.430421,342.061489 784.660194,339.731392 784.660194,336.883495 C784.660194,334.035599 783.851133,331.705502 782.23301,329.893204 C780.614887,328.080906 778.511327,327.174757 775.92233,327.174757 L771.067961,327.174757 C768.220065,327.174757 765.889968,325.621359 764.07767,322.514563 C762.265372,319.407767 761.359223,315.459547 761.359223,310.669903 L761.359223,204.650485 C761.359223,201.802589 760.453074,199.472492 758.640777,197.660194 C756.828479,195.847896 754.498382,194.941748 751.650485,194.941748 C748.802589,194.941748 746.472492,195.847896 744.660194,197.660194 C742.847896,199.472492 741.941748,201.802589 741.941748,204.650485 L741.941748,310.669903 C741.941748,317.660194 743.171521,323.841424 745.631068,329.213592 C748.090615,334.585761 751.521036,338.825243 755.92233,341.932039 C760.323625,345.038835 765.372168,346.592233 771.067961,346.592233 L771.456311,346.592233 Z M853.980583,347.368932 C859.935275,347.368932 866.18123,346.268608 872.718447,344.067961 C879.255663,341.867314 884.724919,339.019417 889.126214,335.524272 C891.326861,333.841424 892.36246,331.834951 892.23301,329.504854 C892.10356,327.174757 890.938511,325.038835 888.737864,323.097087 C887.055016,321.673139 885.080906,320.993528 882.815534,321.058252 C880.550162,321.122977 878.446602,321.867314 876.504854,323.291262 C873.915858,325.23301 870.517799,326.94822 866.31068,328.436893 C862.10356,329.925566 857.993528,330.669903 853.980583,330.669903 C846.601942,330.669903 840.064725,329.05178 834.368932,325.815534 C828.673139,322.579288 824.20712,318.177994 820.970874,312.61165 C818.94822,309.132686 817.557646,305.350324 816.79915,301.264563 L816.647249,300.378641 L890.485437,300.378641 C892.815534,300.378641 894.778641,299.723301 896.374757,298.412621 L896.893204,297.951456 C898.576052,296.333333 899.417476,294.294498 899.417476,291.834951 C899.417476,281.608414 897.508091,272.579288 893.68932,264.747573 C889.87055,256.915858 884.33657,250.76699 877.087379,246.300971 C869.838188,241.834951 861.165049,239.601942 851.067961,239.601942 C840.841424,239.601942 831.779935,241.899676 823.883495,246.495146 C815.987055,251.090615 809.805825,257.433657 805.339806,265.524272 C800.873786,273.614887 798.640777,282.967638 798.640777,293.582524 C798.640777,304.067961 801.003236,313.355987 805.728155,321.446602 C810.453074,329.537217 816.990291,335.880259 825.339806,340.475728 C833.68932,345.071197 843.236246,347.368932 853.980583,347.368932 Z M881.530744,284.84466 L816.867314,284.84466 L817.004531,284.101187 C817.596548,281.102841 818.484574,278.266595 819.668608,275.592449 L820.194175,274.456311 C822.912621,268.825243 826.893204,264.391586 832.135922,261.15534 C837.378641,257.919094 843.68932,256.300971 851.067961,256.300971 C857.540453,256.300971 863.042071,257.789644 867.572816,260.76699 C872.10356,263.744337 875.598706,267.789644 878.058252,272.902913 C879.761016,276.442868 880.905383,280.308554 881.491354,284.499971 L881.530744,284.84466 Z M968.932039,347.368932 C978.381877,347.368932 986.860841,345.006472 994.368932,340.281553 C998.95721,337.394103 1002.95327,333.878181 1006.35713,329.733789 L1006.40777,329.669903 L1006.40777,336.883495 C1006.40777,339.494067 1007.19638,341.696737 1008.7736,343.491505 L1009.2233,343.970874 C1011.10032,345.847896 1013.46278,346.786408 1016.31068,346.786408 C1019.15858,346.786408 1021.52104,345.847896 1023.39806,343.970874 C1025.27508,342.093851 1026.21359,339.731392 1026.21359,336.883495 L1026.21359,336.883495 L1026.21359,293.582524 C1026.21359,283.355987 1023.85113,274.165049 1019.12621,266.009709 C1014.40129,257.854369 1008.02589,251.414239 1000,246.68932 C991.97411,241.964401 982.912621,239.601942 972.815534,239.601942 C962.718447,239.601942 953.624595,241.964401 945.533981,246.68932 C937.443366,251.414239 931.035599,257.854369 926.31068,266.009709 C921.585761,274.165049 919.223301,283.355987 919.223301,293.582524 C919.223301,303.809061 921.391586,312.967638 925.728155,321.058252 C930.064725,329.148867 935.987055,335.556634 943.495146,340.281553 C951.003236,345.006472 959.482201,347.368932 968.932039,347.368932 Z M972.815534,329.893204 C966.343042,329.893204 960.485437,328.307443 955.242718,325.135922 C950,321.964401 945.857605,317.627832 942.815534,312.126214 C939.773463,306.624595 938.252427,300.443366 938.252427,293.582524 C938.252427,286.592233 939.773463,280.346278 942.815534,274.84466 C945.857605,269.343042 950,265.006472 955.242718,261.834951 C960.485437,258.66343 966.343042,257.07767 972.815534,257.07767 C979.417476,257.07767 985.307443,258.66343 990.485437,261.834951 C995.66343,265.006472 999.7411,269.343042 1002.71845,274.84466 C1005.69579,280.346278 1007.18447,286.592233 1007.18447,293.582524 C1007.18447,300.443366 1005.69579,306.624595 1002.71845,312.126214 C999.7411,317.627832 995.66343,321.964401 990.485437,325.135922 C985.307443,328.307443 979.417476,329.893204 972.815534,329.893204 Z M1065.43689,346.592233 C1068.67314,346.592233 1071.10032,345.750809 1072.71845,344.067961 C1074.33657,342.385113 1075.14563,339.990291 1075.14563,336.883495 L1075.14563,336.883495 L1075.14563,280.187702 L1075.16545,279.144388 C1075.36366,273.997749 1077.04841,269.657372 1080.21971,266.123257 L1080.87379,265.427184 C1084.69256,261.543689 1089.90291,258.889968 1096.50485,257.466019 C1103.1068,256.042071 1110.55016,256.171521 1118.83495,257.854369 C1120.5178,258.242718 1122.0712,258.307443 1123.49515,258.048544 C1124.91909,257.789644 1126.18123,257.174757 1127.28155,256.203883 C1128.38188,255.23301 1129.12621,253.841424 1129.51456,252.029126 C1130.42071,248.533981 1128.9644,245.524272 1125.14563,243 C1121.32686,240.475728 1115.53398,239.213592 1107.76699,239.213592 C1100,239.213592 1092.88026,241.02589 1086.40777,244.650485 C1082.36246,246.915858 1078.83546,249.674252 1075.82676,252.925667 L1075.14563,253.68932 L1075.14563,250.087379 C1075.14563,247.12082 1074.46579,244.834097 1073.10612,243.227211 L1072.71845,242.805825 C1071.10032,241.187702 1068.67314,240.378641 1065.43689,240.378641 C1062.3301,240.378641 1059.93528,241.220065 1058.25243,242.902913 C1056.56958,244.585761 1055.72816,246.980583 1055.72816,250.087379 L1055.72816,250.087379 L1055.72816,336.883495 C1055.72816,340.119741 1056.56958,342.546926 1058.25243,344.165049 C1059.93528,345.783172 1062.3301,346.592233 1065.43689,346.592233 Z M1162.13592,346.592233 C1165.11327,346.592233 1167.54045,345.621359 1169.41748,343.679612 C1171.2945,341.737864 1172.23301,339.343042 1172.23301,336.495146 L1172.23301,336.495146 L1172.23301,293.970874 L1200.97087,293.970874 C1210.67961,293.970874 1219.28803,291.899676 1226.79612,287.757282 C1234.30421,283.614887 1240.16181,277.854369 1244.36893,270.475728 C1248.57605,263.097087 1250.67961,254.682848 1250.67961,245.23301 C1250.67961,235.394822 1248.57605,226.68932 1244.36893,219.116505 C1240.16181,211.543689 1234.30421,205.621359 1226.79612,201.349515 C1219.28803,197.07767 1210.67961,194.941748 1200.97087,194.941748 L1200.97087,194.941748 L1162.13592,194.941748 C1159.28803,194.941748 1156.8932,195.880259 1154.95146,197.757282 C1153.00971,199.634304 1152.03883,202.061489 1152.03883,205.038835 L1152.03883,205.038835 L1152.03883,336.495146 C1152.03883,339.343042 1153.00971,341.737864 1154.95146,343.679612 C1156.8932,345.621359 1159.28803,346.592233 1162.13592,346.592233 Z M1200.97087,275.330097 L1172.23301,275.330097 L1172.23301,213.582524 L1200.97087,213.582524 C1206.92557,213.582524 1212.16828,214.941748 1216.69903,217.660194 C1221.22977,220.378641 1224.78964,224.100324 1227.37864,228.825243 C1229.96764,233.550162 1231.26214,239.019417 1231.26214,245.23301 C1231.26214,251.058252 1229.96764,256.236246 1227.37864,260.76699 C1224.78964,265.297735 1221.22977,268.857605 1216.69903,271.446602 C1212.16828,274.035599 1206.92557,275.330097 1200.97087,275.330097 L1200.97087,275.330097 Z M1315.33981,347.368932 C1324.78964,347.368932 1333.26861,345.006472 1340.7767,340.281553 C1345.36498,337.394103 1349.36104,333.878181 1352.76489,329.733789 L1352.8123,329.673139 L1352.81553,336.883495 C1352.81553,339.494067 1353.60414,341.696737 1355.18136,343.491505 L1355.63107,343.970874 C1357.50809,345.847896 1359.87055,346.786408 1362.71845,346.786408 C1365.56634,346.786408 1367.9288,345.847896 1369.80583,343.970874 C1371.68285,342.093851 1372.62136,339.731392 1372.62136,336.883495 L1372.62136,336.883495 L1372.62136,293.582524 C1372.62136,283.355987 1370.2589,274.165049 1365.53398,266.009709 C1360.80906,257.854369 1354.43366,251.414239 1346.40777,246.68932 C1338.38188,241.964401 1329.32039,239.601942 1319.2233,239.601942 C1309.12621,239.601942 1300.03236,241.964401 1291.94175,246.68932 C1283.85113,251.414239 1277.44337,257.854369 1272.71845,266.009709 C1267.99353,274.165049 1265.63107,283.355987 1265.63107,293.582524 C1265.63107,303.809061 1267.79935,312.967638 1272.13592,321.058252 C1276.47249,329.148867 1282.39482,335.556634 1289.90291,340.281553 C1297.411,345.006472 1305.88997,347.368932 1315.33981,347.368932 Z M1319.2233,329.893204 C1312.75081,329.893204 1306.8932,328.307443 1301.65049,325.135922 C1296.40777,321.964401 1292.26537,317.627832 1289.2233,312.126214 C1286.18123,306.624595 1284.66019,300.443366 1284.66019,293.582524 C1284.66019,286.592233 1286.18123,280.346278 1289.2233,274.84466 C1292.26537,269.343042 1296.40777,265.006472 1301.65049,261.834951 C1306.8932,258.66343 1312.75081,257.07767 1319.2233,257.07767 C1325.82524,257.07767 1331.71521,258.66343 1336.8932,261.834951 C1342.0712,265.006472 1346.14887,269.343042 1349.12621,274.84466 C1352.10356,280.346278 1353.59223,286.592233 1353.59223,293.582524 C1353.59223,300.443366 1352.10356,306.624595 1349.12621,312.126214 C1346.14887,317.627832 1342.0712,321.964401 1336.8932,325.135922 C1331.71521,328.307443 1325.82524,329.893204 1319.2233,329.893204 Z M1440.7767,347.368932 C1449.96764,347.368932 1457.63754,345.944984 1463.78641,343.097087 C1469.93528,340.249191 1474.59547,336.430421 1477.76699,331.640777 C1480.93851,326.851133 1482.52427,321.478964 1482.52427,315.524272 C1482.52427,310.346278 1481.2945,305.783172 1478.83495,301.834951 C1476.3754,297.886731 1472.3301,294.423948 1466.69903,291.446602 C1461.06796,288.469256 1453.39806,286.009709 1443.68932,284.067961 C1436.69903,282.644013 1431.39159,281.187702 1427.76699,279.699029 C1424.14239,278.210356 1421.71521,276.527508 1420.48544,274.650485 C1419.25566,272.773463 1418.64078,270.669903 1418.64078,268.339806 C1418.64078,264.585761 1420.61489,261.737864 1424.56311,259.796117 C1428.51133,257.854369 1433.33333,256.883495 1439.02913,256.883495 C1443.94822,256.883495 1448.28479,257.466019 1452.03883,258.631068 C1455.79288,259.796117 1459.28803,261.932039 1462.52427,265.038835 C1464.46602,266.851133 1466.86084,268.016181 1469.70874,268.533981 C1472.55663,269.05178 1475.01618,268.598706 1477.08738,267.174757 C1479.15858,265.621359 1480.2589,263.711974 1480.38835,261.446602 C1480.5178,259.18123 1479.67638,257.012945 1477.86408,254.941748 C1473.98058,250.152104 1468.73786,246.398058 1462.13592,243.679612 C1455.53398,240.961165 1447.96117,239.601942 1439.41748,239.601942 C1432.81553,239.601942 1426.47249,240.669903 1420.38835,242.805825 C1414.30421,244.941748 1409.32039,248.177994 1405.43689,252.514563 C1401.5534,256.851133 1399.61165,262.320388 1399.61165,268.92233 C1399.61165,276.430421 1402.55663,282.773463 1408.4466,287.951456 C1414.33657,293.12945 1423.81877,297.012945 1436.8932,299.601942 C1446.99029,301.414239 1453.94822,303.744337 1457.76699,306.592233 C1461.58576,309.440129 1463.43042,312.805825 1463.30097,316.68932 C1463.17152,320.572816 1461.13269,323.744337 1457.18447,326.203883 C1453.23625,328.66343 1447.50809,329.893204 1440,329.893204 C1434.04531,329.893204 1428.64078,328.825243 1423.78641,326.68932 C1418.93204,324.553398 1415.40453,322.255663 1413.20388,319.796117 C1411.39159,317.854369 1409.2233,316.721683 1406.69903,316.398058 C1404.17476,316.074434 1401.61812,316.94822 1399.02913,319.019417 C1396.82848,320.702265 1395.56634,322.87055 1395.24272,325.524272 C1394.91909,328.177994 1395.72816,330.540453 1397.6699,332.61165 C1401.94175,336.883495 1407.9288,340.411003 1415.63107,343.194175 C1423.33333,345.977346 1431.71521,347.368932 1440.7767,347.368932 Z M1546.21359,347.368932 C1555.40453,347.368932 1563.07443,345.944984 1569.2233,343.097087 C1575.37217,340.249191 1580.03236,336.430421 1583.20388,331.640777 C1586.3754,326.851133 1587.96117,321.478964 1587.96117,315.524272 C1587.96117,310.346278 1586.73139,305.783172 1584.27184,301.834951 C1581.8123,297.886731 1577.76699,294.423948 1572.13592,291.446602 C1566.50485,288.469256 1558.83495,286.009709 1549.12621,284.067961 C1542.13592,282.644013 1536.82848,281.187702 1533.20388,279.699029 C1529.57929,278.210356 1527.1521,276.527508 1525.92233,274.650485 C1524.69256,272.773463 1524.07767,270.669903 1524.07767,268.339806 C1524.07767,264.585761 1526.05178,261.737864 1530,259.796117 C1533.94822,257.854369 1538.77023,256.883495 1544.46602,256.883495 C1549.38511,256.883495 1553.72168,257.466019 1557.47573,258.631068 C1561.22977,259.796117 1564.72492,261.932039 1567.96117,265.038835 C1569.90291,266.851133 1572.29773,268.016181 1575.14563,268.533981 C1577.99353,269.05178 1580.45307,268.598706 1582.52427,267.174757 C1584.59547,265.621359 1585.69579,263.711974 1585.82524,261.446602 C1585.95469,259.18123 1585.11327,257.012945 1583.30097,254.941748 C1579.41748,250.152104 1574.17476,246.398058 1567.57282,243.679612 C1560.97087,240.961165 1553.39806,239.601942 1544.85437,239.601942 C1538.25243,239.601942 1531.90939,240.669903 1525.82524,242.805825 C1519.7411,244.941748 1514.75728,248.177994 1510.87379,252.514563 C1506.99029,256.851133 1505.04854,262.320388 1505.04854,268.92233 C1505.04854,276.430421 1507.99353,282.773463 1513.8835,287.951456 C1519.77346,293.12945 1529.25566,297.012945 1542.3301,299.601942 C1552.42718,301.414239 1559.38511,303.744337 1563.20388,306.592233 C1567.02265,309.440129 1568.86731,312.805825 1568.73786,316.68932 C1568.60841,320.572816 1566.56958,323.744337 1562.62136,326.203883 C1558.67314,328.66343 1552.94498,329.893204 1545.43689,329.893204 C1539.4822,329.893204 1534.07767,328.825243 1529.2233,326.68932 C1524.36893,324.553398 1520.84142,322.255663 1518.64078,319.796117 C1516.82848,317.854369 1514.66019,316.721683 1512.13592,316.398058 C1509.61165,316.074434 1507.05502,316.94822 1504.46602,319.019417 C1502.26537,320.702265 1501.00324,322.87055 1500.67961,325.524272 C1500.35599,328.177994 1501.16505,330.540453 1503.1068,332.61165 C1507.37864,336.883495 1513.3657,340.411003 1521.06796,343.194175 C1528.77023,345.977346 1537.1521,347.368932 1546.21359,347.368932 Z" id="ClearPass" fill="#617AD0" fill-rule="nonzero"></path>
        <line x1="219.317152" y1="270.964401" x2="438.734628" y2="269.669903" id="Line" stroke="#617AD0" stroke-width="19.4174757" stroke-linecap="round"></line>
        <path d="M215.951456,347.533981 C224.754045,347.533981 233.135922,346.110032 241.097087,343.262136 C249.058252,340.414239 256.533981,336.20712 263.524272,330.640777 C264.559871,329.605178 265.33657,328.472492 265.854369,327.242718 C266.372168,326.012945 266.631068,324.750809 266.631068,323.456311 C266.631068,320.608414 265.854369,318.375405 264.300971,316.757282 C262.747573,315.139159 260.838188,314.23301 258.572816,314.038835 C256.307443,313.84466 254.009709,314.588997 251.679612,316.271845 C246.242718,320.28479 240.579288,323.423948 234.68932,325.68932 C228.799353,327.954693 222.553398,329.087379 215.951456,329.087379 C208.313916,329.087379 201.12945,327.566343 194.398058,324.524272 C187.666667,321.482201 181.744337,317.242718 176.631068,311.805825 C171.517799,306.368932 167.537217,300.058252 164.68932,292.873786 C161.841424,285.68932 160.417476,277.954693 160.417476,269.669903 C160.417476,261.514563 161.841424,253.84466 164.68932,246.660194 C167.537217,239.475728 171.517799,233.165049 176.631068,227.728155 C181.744337,222.291262 187.666667,218.019417 194.398058,214.912621 C201.12945,211.805825 208.313916,210.252427 215.951456,210.252427 C224.365696,210.252427 231.12945,211.352751 236.242718,213.553398 C241.355987,215.754045 246.307443,218.925566 251.097087,223.067961 C253.427184,224.880259 255.822006,225.68932 258.281553,225.495146 C260.7411,225.300971 262.84466,224.394822 264.592233,222.776699 C266.339806,221.158576 267.213592,219.119741 267.213592,216.660194 C267.213592,215.495146 267.116505,214.491909 266.92233,213.650485 C266.728155,212.809061 266.339806,211.967638 265.757282,211.126214 C265.174757,210.28479 264.365696,209.475728 263.330097,208.699029 C256.080906,202.744337 248.864078,198.472492 241.679612,195.883495 C234.495146,193.294498 225.919094,192 215.951456,192 C205.33657,192 195.498382,194.006472 186.436893,198.019417 C177.375405,202.032362 169.446602,207.566343 162.650485,214.621359 C155.854369,221.676375 150.546926,229.89644 146.728155,239.281553 C142.909385,248.666667 141,258.796117 141,269.669903 C141,280.673139 142.909385,290.899676 146.728155,300.349515 C150.546926,309.799353 155.854369,318.05178 162.650485,325.106796 C169.446602,332.161812 177.407767,337.66343 186.533981,341.61165 C195.660194,345.559871 205.466019,347.533981 215.951456,347.533981 Z" id="Path" fill="#617AD0"></path>
    </g>
</svg>