<svg viewBox="0 0 323.1899 60.7187" xmlns="http://www.w3.org/2000/svg" xmlns:xlink="http://www.w3.org/1999/xlink"><linearGradient id="a" gradientUnits="userSpaceOnUse" x1="50.628" x2="4.8176" y1="-15.5191" y2="59.7408"><stop offset="0" stop-color="#fff"/><stop offset=".2272" stop-color="#1b75bc"/><stop offset=".997" stop-color="#00aeef"/><stop offset="1"/></linearGradient><g fill="#0d497b"><path d="m79.6591 17.5941h8.4523c7.0251 0 10.07 4.571 9.4674 12.7626s-4.32 12.7619-11.3451 12.7619h-8.4523zm6.5165 21.2094c3.3435 0 5.0047-2.1576 5.2979-6.143l.3416-4.6441c.2906-3.95-1.0532-6.1071-4.3966-6.1071h-2.5169l-1.2428 16.8942z"/><path d="m101.3664 43.1186 1.8778-25.5245h16.4364l.5177 4.4979h-11.65l-.43 5.8513h10.744l-.3308 4.4971h-10.744l-.4547 6.18h11.12l-.3309 4.4979z"/><path d="m124.35 43.1186 1.8777-25.5245h16.4365l.5177 4.4979h-11.65l-.43 5.8513h10.744l-.3308 4.4971h-10.744l-.4547 6.18h11.12l-.3309 4.4979z"/><path d="m147.1837 43.1186 1.8777-25.5245h10.143c5.1466 0 7.8053 3.1812 7.4421 8.1185s-3.49 8.1177-8.6366 8.1177h-4.47l-.6833 9.2883zm6.6813-13.7131h3.0431c2.63 0 3.5985-.9139 3.7626-3.1446l.0807-1.0974c.1641-2.2307-.67-3.1446-3.3-3.1446h-3.0431z"/><path d="m168.5574 39.6085 3.5265-3.5109a8.3165 8.3165 0 0 0 6.3912 2.9983c2.6672 0 4.221-1.2063 4.3824-3.4005.1318-1.792-.7833-2.6327-3.3079-3.0349l-2.71-.4394c-4.6395-.7677-6.4233-3.5833-6.1489-7.3135.3605-4.9 4.0641-7.7522 10-7.7522 4.0193 0 7.003 1.3161 8.6907 3.4005l-3.4492 3.4741a7.0381 7.0381 0 0 0 -5.5328-2.4135c-2.5168 0-3.87 1.0236-4.0174 3.0349-.1292 1.7555.8661 2.5231 3.3885 2.9618l2.7074.476c4.1536.7311 6.4178 3.1446 6.1218 7.1673-.3524 4.79-4.0666 8.3005-10.641 8.3005-4.3574.0003-7.5879-1.5351-9.4013-3.9485z"/><path d="m193.4764 43.1186 1.8777-25.5245h10.143c5.1466 0 7.8053 3.1812 7.4421 8.1185s-3.49 8.1177-8.6366 8.1177h-4.47l-.6833 9.2883zm6.6814-13.7131h3.0431c2.6294 0 3.5984-.9139 3.7625-3.1446l.0807-1.0974c.1641-2.2307-.67-3.1446-3.3-3.1446h-3.0431z"/><path d="m229.2908 43.1186-1.2-6.1437h-7.1754l-2.0678 6.1437h-5.71l8.9775-25.5245h7.9646l5.2221 25.5245zm-3.5835-20.2223h-.3007l-3.2648 9.6537h5.4092z"/><path d="m257.406 17.594h-20.592l-.299 4.059h7.757l-1.575 21.466h5.644l1.566-21.466h8.049z"/><path d="m260.1673 43.1186.2986-4.0592h5.1047l1.28-17.406h-5.1047l-.55-4.0593h16.9054l-.2456 4.0593h-5.37l-1.2805 17.406h5.1047l-.2986 4.0592z"/><path d="m295.6455 43.1186-1.2006-6.1437h-7.1749l-2.0678 6.1437h-5.71l8.9775-25.5245h7.9646l5.2221 25.5245zm-3.5835-20.2223h-.3007l-3.2648 9.6537h5.41z"/><path d="m306.2471 43.1186 1.8778-25.5245h5.6725l-1.5468 21.0266h10.4216l.5177 4.4979z"/></g><path d="m25.8013 12.0675 20.3629 14.8825-38.1477 33.7687h17.7023c18.4167 0 33.4-13.6192 33.4-30.3594-.0003-16.4247-14.4265-29.8354-32.3651-30.3354l.0076-.0239h-26.7613l7.5034 60.4679z" fill="url(#a)"/><path d="m9.732 8.674h-8.655l-1.076-8.674h8.673z" fill="#00aeea" opacity=".9"/><path d="m18.406 8.674h-8.674l-1.058-8.674h8.674z" fill="#00a7e4" opacity=".7"/><path d="m27.08 8.674h-8.674l-1.058-8.674h8.674z" fill="#008cce" opacity=".8"/><path d="m10.789 17.348h-8.636l-1.076-8.674h8.655z" fill="#00a3e1" opacity=".5"/><path d="m19.463 17.348h-8.674l-1.057-8.674h8.674z" fill="#00ade9" opacity=".8"/><path d="m11.846 26.022h-8.616l-1.077-8.674h8.636z" fill="#0090d1"/><path d="m20.52 26.022h-8.674l-1.057-8.674h8.674z" fill="#009bdb" opacity=".9"/><path d="m12.904 34.696h-8.598l-1.076-8.674h8.616z" fill="#00a3e1" opacity=".7"/><path d="m13.961 43.371h-8.579l-1.076-8.675h8.598z" fill="#00ace8" opacity=".9"/></svg>